<svg version="1.1" id="Layer_1" xmlns="http://www.w3.org/2000/svg" xmlns:xlink="http://www.w3.org/1999/xlink" x="0px" y="0px"
	 width="100%" viewBox="0 0 1024 1024" enable-background="new 0 0 1024 1024" xml:space="preserve">
<path fill="#000000" opacity="1.000000" stroke="none" 
	d="
M473.000000,1025.000000 
	C315.333344,1025.000000 158.166672,1025.000000 1.000000,1025.000000 
	C1.000000,683.666687 1.000000,342.333344 1.000000,1.000000 
	C342.333344,1.000000 683.666687,1.000000 1025.000000,1.000000 
	C1025.000000,342.333344 1025.000000,683.666687 1025.000000,1025.000000 
	C841.166687,1025.000000 657.333313,1025.000000 473.000000,1025.000000 
M643.977356,437.497070 
	C643.627075,436.657471 643.276733,435.817902 642.609741,434.223724 
	C639.245422,420.191162 633.779236,407.038330 625.930054,394.921539 
	C594.289551,346.077911 539.619019,322.779999 482.578247,336.401001 
	C428.830688,349.235687 395.413025,384.988922 381.421173,439.376801 
	C381.085236,442.739746 380.749298,446.102692 380.438965,449.759949 
	C380.438965,449.759949 380.271088,450.003052 379.447845,450.328644 
	C379.301605,461.844330 379.054718,473.359802 379.027344,484.875763 
	C378.931396,525.265320 378.896515,565.654968 378.913879,606.044617 
	C378.914581,607.704834 379.675537,609.364868 380.605042,611.381104 
	C414.729584,635.963684 448.854126,660.546265 483.329315,685.381409 
	C493.205536,665.089966 502.897430,645.177124 513.080811,624.254456 
	C523.274231,645.162170 532.978577,665.066833 542.879028,685.373779 
	C572.628906,663.892456 602.019287,642.670654 632.062805,621.664734 
	C632.483398,621.189880 632.904053,620.715088 633.477539,620.037964 
	C633.477539,620.037964 633.707214,619.930603 634.422668,619.905945 
	C634.769043,619.448425 635.115417,618.990967 635.506226,618.418701 
	C635.506226,618.418701 635.625549,618.448364 636.275635,618.815796 
	C637.229919,617.925232 638.184204,617.034668 639.005920,615.999023 
	C639.005920,615.999023 639.133423,616.146973 639.863342,616.247253 
	C640.734253,615.351624 641.605164,614.455994 642.509033,613.451294 
	C642.509033,613.451294 642.621521,613.469727 643.207397,613.755005 
	C643.589355,613.281799 643.971252,612.808655 644.584045,612.148438 
	C644.584045,612.148438 644.880188,612.125000 645.764954,612.180237 
	C646.219604,610.688721 647.063904,609.199280 647.072144,607.705322 
	C647.310852,564.456787 647.507751,521.207825 647.600342,477.958771 
	C647.619751,468.892792 647.358276,459.818085 646.893433,450.764465 
	C646.761292,448.189972 645.455566,445.675720 644.481323,442.844879 
	C644.481323,442.844879 644.485229,442.489624 644.851562,441.734619 
	C644.479187,440.553131 644.106812,439.371643 643.996460,438.019073 
	C643.996460,438.019073 643.739685,438.199463 643.977356,437.497070 
z"/>
<path fill="#3A5E70" opacity="1.000000" stroke="none" 
	d="
M380.082306,611.024963 
	C379.675537,609.364868 378.914581,607.704834 378.913879,606.044617 
	C378.896515,565.654968 378.931396,525.265320 379.027344,484.875763 
	C379.054718,473.359802 379.301605,461.844330 380.022278,450.616577 
	C380.302124,455.863647 380.007507,460.822815 379.704071,465.930359 
	C386.922058,465.930359 393.621460,465.930359 400.304047,465.930359 
	C401.347382,403.435547 449.877899,357.629547 504.825592,354.039062 
	C532.424927,352.235596 557.725159,359.017883 579.934753,375.767914 
	C609.813293,398.301727 624.157349,428.967163 625.803040,465.843231 
	C632.774658,465.843231 639.328735,465.843231 646.363037,465.843231 
	C645.783081,457.980530 645.235596,450.557159 644.688049,443.133820 
	C645.455566,445.675720 646.761292,448.189972 646.893433,450.764465 
	C647.358276,459.818085 647.619751,468.892792 647.600342,477.958771 
	C647.507751,521.207825 647.310852,564.456787 647.072144,607.705322 
	C647.063904,609.199280 646.219604,610.688721 645.452271,611.728516 
	C645.476807,609.374268 646.106262,607.471985 646.107971,605.569214 
	C646.141296,567.905579 646.101990,530.241882 646.077637,492.578186 
	C646.076599,490.958984 646.077454,489.339752 646.077454,487.534302 
	C639.010681,487.534302 632.457947,487.534302 625.382751,487.534302 
	C625.382751,489.629730 625.383972,491.425873 625.382507,493.222015 
	C625.355042,527.219238 625.355225,561.216614 625.226990,595.213440 
	C625.219604,597.168213 624.789368,599.896667 623.491211,600.939087 
	C617.417419,605.816467 610.970154,610.228760 603.993713,615.287781 
	C573.539368,553.781433 543.325134,492.760132 513.000916,431.516724 
	C485.915680,486.224731 458.995605,540.599121 431.987152,595.152039 
	C437.733643,599.173523 443.266113,603.045288 449.182068,607.185425 
	C470.462280,564.212585 491.528595,521.671814 512.997925,478.317047 
	C521.183289,495.019165 528.889709,510.744141 536.835938,526.958374 
	C530.368652,526.958374 524.712524,526.910217 519.058350,526.996033 
	C517.817871,527.014832 515.908203,527.100769 515.454163,527.850647 
	C511.529633,534.331177 507.867737,540.970703 503.896545,547.970154 
	C517.142944,547.970154 529.776184,548.121155 542.401733,547.876404 
	C546.095886,547.804749 547.986755,548.957642 549.630188,552.286011 
	C559.802185,572.886719 570.220215,593.366028 580.548401,613.889709 
	C582.783569,618.331177 584.985413,622.789368 587.381470,627.598755 
	C575.161926,636.329895 563.165649,644.901489 550.678467,653.823914 
	C538.071838,627.740356 525.783203,602.314697 513.092957,576.058167 
	C500.262054,602.381409 487.901855,627.738892 475.431335,653.322754 
	C474.066284,652.419067 472.941956,651.728210 471.873627,650.959595 
	C449.429291,634.809998 427.032532,618.593567 404.501648,602.565674 
	C401.563812,600.475830 400.604431,598.281494 400.617462,594.754883 
	C400.742615,560.924805 400.679108,527.094055 400.669800,493.263458 
	C400.669281,491.337524 400.669769,489.411560 400.669769,487.645691 
	C393.307098,487.645691 386.733643,487.645691 379.916687,487.645691 
	C379.916687,489.739685 379.916748,491.394562 379.916687,493.049408 
	C379.915375,525.380188 379.904266,557.710999 379.920502,590.041809 
	C379.924011,597.036194 380.025787,604.030579 380.082306,611.024963 
M501.459015,413.879517 
	C508.269653,411.057678 514.905518,408.684998 522.306458,412.795990 
	C526.610474,415.186707 531.604370,416.335480 537.263184,418.398712 
	C528.934631,401.545837 521.181885,385.858063 513.080811,369.465576 
	C504.973053,385.861664 497.223907,401.532654 488.958282,418.248047 
	C493.632172,416.591919 497.165192,415.340057 501.459015,413.879517 
z"/>
<path fill="#F9FCFB" opacity="1.000000" stroke="none" 
	d="
M380.343689,611.203003 
	C380.025787,604.030579 379.924011,597.036194 379.920502,590.041809 
	C379.904266,557.710999 379.915375,525.380188 379.916687,493.049408 
	C379.916748,491.394562 379.916687,489.739685 379.916687,487.645691 
	C386.733643,487.645691 393.307098,487.645691 400.669769,487.645691 
	C400.669769,489.411560 400.669281,491.337524 400.669800,493.263458 
	C400.679108,527.094055 400.742615,560.924805 400.617462,594.754883 
	C400.604431,598.281494 401.563812,600.475830 404.501648,602.565674 
	C427.032532,618.593567 449.429291,634.809998 471.873627,650.959595 
	C472.941956,651.728210 474.066284,652.419067 475.431335,653.322754 
	C487.901855,627.738892 500.262054,602.381409 513.092957,576.058167 
	C525.783203,602.314697 538.071838,627.740356 550.678467,653.823914 
	C563.165649,644.901489 575.161926,636.329895 587.381470,627.598755 
	C584.985413,622.789368 582.783569,618.331177 580.548401,613.889709 
	C570.220215,593.366028 559.802185,572.886719 549.630188,552.286011 
	C547.986755,548.957642 546.095886,547.804749 542.401733,547.876404 
	C529.776184,548.121155 517.142944,547.970154 503.896545,547.970154 
	C507.867737,540.970703 511.529633,534.331177 515.454163,527.850647 
	C515.908203,527.100769 517.817871,527.014832 519.058350,526.996033 
	C524.712524,526.910217 530.368652,526.958374 536.835938,526.958374 
	C528.889709,510.744141 521.183289,495.019165 512.997925,478.317047 
	C491.528595,521.671814 470.462280,564.212585 449.182068,607.185425 
	C443.266113,603.045288 437.733643,599.173523 431.987152,595.152039 
	C458.995605,540.599121 485.915680,486.224731 513.000916,431.516724 
	C543.325134,492.760132 573.539368,553.781433 603.993713,615.287781 
	C610.970154,610.228760 617.417419,605.816467 623.491211,600.939087 
	C624.789368,599.896667 625.219604,597.168213 625.226990,595.213440 
	C625.355225,561.216614 625.355042,527.219238 625.382507,493.222015 
	C625.383972,491.425873 625.382751,489.629730 625.382751,487.534302 
	C632.457947,487.534302 639.010681,487.534302 646.077454,487.534302 
	C646.077454,489.339752 646.076599,490.958984 646.077637,492.578186 
	C646.101990,530.241882 646.141296,567.905579 646.107971,605.569214 
	C646.106262,607.471985 645.476807,609.374268 645.009888,611.700867 
	C644.880188,612.125000 644.584045,612.148438 644.179199,612.204407 
	C643.390076,612.663513 643.005798,613.066650 642.621521,613.469727 
	C642.621521,613.469727 642.509033,613.451294 642.177490,613.558960 
	C640.941711,614.493408 640.037537,615.320190 639.133423,616.146973 
	C639.133423,616.146973 639.005920,615.999023 638.754028,616.020447 
	C637.543274,616.844055 636.584412,617.646240 635.625549,618.448364 
	C635.625549,618.448364 635.506226,618.418701 635.177002,618.513062 
	C634.467651,619.048523 634.087402,619.489563 633.707214,619.930603 
	C633.707214,619.930603 633.477539,620.037964 633.087158,620.098572 
	C632.267761,620.589111 631.838745,621.019043 631.409668,621.448853 
	C602.019287,642.670654 572.628906,663.892456 542.879028,685.373779 
	C532.978577,665.066833 523.274231,645.162170 513.080811,624.254456 
	C502.897430,645.177124 493.205536,665.089966 483.329315,685.381409 
	C448.854126,660.546265 414.729584,635.963684 380.343689,611.203003 
z"/>
<path fill="#F8FBFB" opacity="1.000000" stroke="none" 
	d="
M644.584717,442.989349 
	C645.235596,450.557159 645.783081,457.980530 646.363037,465.843231 
	C639.328735,465.843231 632.774658,465.843231 625.803040,465.843231 
	C624.157349,428.967163 609.813293,398.301727 579.934753,375.767914 
	C557.725159,359.017883 532.424927,352.235596 504.825592,354.039062 
	C449.877899,357.629547 401.347382,403.435547 400.304047,465.930359 
	C393.621460,465.930359 386.922058,465.930359 379.704071,465.930359 
	C380.007507,460.822815 380.302124,455.863647 380.433899,450.453766 
	C380.271088,450.003052 380.438965,449.759949 380.640808,449.265411 
	C381.262512,445.498627 381.682343,442.226349 382.102173,438.954102 
	C395.413025,384.988922 428.830688,349.235687 482.578247,336.401001 
	C539.619019,322.779999 594.289551,346.077911 625.930054,394.921539 
	C633.779236,407.038330 639.245422,420.191162 642.706055,434.949310 
	C643.114807,436.516418 643.427246,437.357941 643.739685,438.199463 
	C643.739685,438.199463 643.996460,438.019073 643.718140,438.454407 
	C643.788330,440.089691 644.136780,441.289642 644.485229,442.489624 
	C644.485229,442.489624 644.481323,442.844879 644.584717,442.989349 
z"/>
<path fill="#3A5E70" opacity="1.000000" stroke="none" 
	d="
M381.761688,439.165466 
	C381.682343,442.226349 381.262512,445.498627 380.628021,449.118256 
	C380.749298,446.102692 381.085236,442.739746 381.761688,439.165466 
z"/>
<path fill="#3A5E70" opacity="1.000000" stroke="none" 
	d="
M635.950562,618.632080 
	C636.584412,617.646240 637.543274,616.844055 638.820312,616.093018 
	C638.184204,617.034668 637.229919,617.925232 635.950562,618.632080 
z"/>
<path fill="#3A5E70" opacity="1.000000" stroke="none" 
	d="
M639.498413,616.197144 
	C640.037537,615.320190 640.941711,614.493408 642.160950,613.613525 
	C641.605164,614.455994 640.734253,615.351624 639.498413,616.197144 
z"/>
<path fill="#3A5E70" opacity="1.000000" stroke="none" 
	d="
M644.668396,442.112122 
	C644.136780,441.289642 643.788330,440.089691 643.587158,438.539917 
	C644.106812,439.371643 644.479187,440.553131 644.668396,442.112122 
z"/>
<path fill="#3A5E70" opacity="1.000000" stroke="none" 
	d="
M643.858521,437.848267 
	C643.427246,437.357941 643.114807,436.516418 642.864380,435.326599 
	C643.276733,435.817902 643.627075,436.657471 643.858521,437.848267 
z"/>
<path fill="#3A5E70" opacity="1.000000" stroke="none" 
	d="
M642.914429,613.612366 
	C643.005798,613.066650 643.390076,612.663513 644.063782,612.297913 
	C643.971252,612.808655 643.589355,613.281799 642.914429,613.612366 
z"/>
<path fill="#3A5E70" opacity="1.000000" stroke="none" 
	d="
M634.064941,619.918274 
	C634.087402,619.489563 634.467651,619.048523 635.154785,618.570435 
	C635.115417,618.990967 634.769043,619.448425 634.064941,619.918274 
z"/>
<path fill="#3A5E70" opacity="1.000000" stroke="none" 
	d="
M631.736206,621.556824 
	C631.838745,621.019043 632.267761,620.589111 633.010742,620.199707 
	C632.904053,620.715088 632.483398,621.189880 631.736206,621.556824 
z"/>
<path fill="#F8FBFB" opacity="1.000000" stroke="none" 
	d="
M501.078613,413.983856 
	C497.165192,415.340057 493.632172,416.591919 488.958282,418.248047 
	C497.223907,401.532654 504.973053,385.861664 513.080811,369.465576 
	C521.181885,385.858063 528.934631,401.545837 537.263184,418.398712 
	C531.604370,416.335480 526.610474,415.186707 522.306458,412.795990 
	C514.905518,408.684998 508.269653,411.057678 501.078613,413.983856 
z"/>
</svg>