<?xml version="1.0" encoding="UTF-8"?>
<svg version="1.1" xmlns="http://www.w3.org/2000/svg" width="577" height="433">
<path d="M0 0 C0.86625 0.845625 1.7325 1.69125 2.625 2.5625 C2.625 3.2225 2.625 3.8825 2.625 4.5625 C3.285 4.5625 3.945 4.5625 4.625 4.5625 C20.13145991 21.54882952 26.72954562 42.59164153 26.01171875 65.27734375 C25.60688235 72.40731732 24.03741487 78.82684659 21.625 85.5625 C21.11646484 87.07457031 21.11646484 87.07457031 20.59765625 88.6171875 C12.66097754 109.9134713 -3.36746589 124.72937113 -23.58984375 134.34765625 C-34.01592601 138.89535833 -43.39474898 139.74331394 -54.6875 139.75 C-55.76451172 139.76224609 -56.84152344 139.77449219 -57.95117188 139.78710938 C-79.77515035 139.8267653 -97.34723931 130.6412928 -113.09765625 115.9375 C-129.50930334 98.82209446 -135.97768794 77.48119066 -135.64453125 54.28515625 C-135.0662148 37.0353725 -127.35755446 18.75812437 -115.83203125 5.83203125 C-114.375 4.5625 -114.375 4.5625 -112.375 4.5625 C-112.045 3.5725 -111.715 2.5825 -111.375 1.5625 C-80.96219173 -29.462236 -31.84472468 -26.15359919 0 0 Z " fill="#FE9552" transform="translate(343.375,140.4375)"/>
<path d="M0 0 C5.09986577 4.19938013 6.48483436 8.41329374 8.1875 14.6875 C8.5577832 15.95883789 8.5577832 15.95883789 8.93554688 17.25585938 C12.75057438 30.63388915 14.15249743 43.67107175 14.16796875 57.5625 C14.17296135 59.16955811 14.17296135 59.16955811 14.17805481 60.80908203 C14.18308581 63.06461157 14.18546433 65.32014845 14.18530273 67.57568359 C14.18747648 70.96334648 14.20563879 74.35067629 14.22460938 77.73828125 C14.26729751 93.98647042 13.64729936 110.11391541 10.25 126.0625 C10.08588623 126.84415527 9.92177246 127.62581055 9.75268555 128.43115234 C8.25640729 134.95826722 5.83010038 141.16989962 1 146 C-8.58149744 146.87602262 -16.64017969 138.88210667 -23.66015625 133.08203125 C-38.11609689 120.21889876 -48.72668441 101.00112109 -50.18457031 81.53564453 C-51.32912807 58.87093076 -45.9422883 36.63654105 -30.45703125 19.26953125 C-29 18 -29 18 -27 18 C-26.67 17.01 -26.34 16.02 -26 15 C-24.30897478 13.43381556 -22.54793612 11.94219475 -20.75 10.5 C-19.79609375 9.7265625 -18.8421875 8.953125 -17.859375 8.15625 C-10.66136769 2.72824448 -10.66136769 2.72824448 -5.8125 2.4375 C-1.98392511 2.39851321 -1.98392511 2.39851321 0 0 Z " fill="#89189A" transform="translate(258,127)"/>
<path d="M0 0 C1.67542976 0.28604898 3.34385343 0.61781233 5 1 C5 1.66 5 2.32 5 3 C5.66 3 6.32 3 7 3 C19.20247998 23.91853711 18.52495269 52.85491752 18.39111328 76.28710938 C18.37496658 79.63192259 18.3911241 82.9755342 18.41015625 86.3203125 C18.43219333 109.17088429 17.58731893 135.20348067 7 156 C6.34 156 5.68 156 5 156 C5 156.66 5 157.32 5 158 C-2.69487101 158.36706982 -9.97161857 157.90539969 -17.5625 156.6875 C-18.72241455 156.51093872 -18.72241455 156.51093872 -19.90576172 156.33081055 C-23.98626388 155.63041247 -26.95490258 154.88355379 -30 152 C-29.01 151.67 -28.02 151.34 -27 151 C-21.57616584 144.33161079 -19.63977983 136.98842578 -18.1875 128.6875 C-17.98447266 127.64916016 -17.78144531 126.61082031 -17.57226562 125.54101562 C-14.80507669 110.7918073 -14.81362185 96.11834069 -14.81469727 81.16357422 C-14.81251396 77.77168155 -14.79431334 74.38011654 -14.77539062 70.98828125 C-14.7315728 54.837018 -15.17929152 39.30706451 -19.9375 23.75 C-20.18951172 22.86699219 -20.44152344 21.98398438 -20.70117188 21.07421875 C-22.29811885 15.65848553 -23.92835087 11.07164913 -28 7 C-28.33 7.66 -28.66 8.32 -29 9 C-30.98 9 -32.96 9 -35 9 C-30.55958353 3.81951411 -24.71630825 2.48939465 -18.1875 1.8125 C-17.13453735 1.69080444 -17.13453735 1.69080444 -16.06030273 1.56665039 C-11.00561286 1.0152615 -6.0751648 0.91096202 -1 1 C-0.67 0.67 -0.34 0.34 0 0 Z " fill="#FD4B76" transform="translate(286,121)"/>
<path d="M0 0 C3.95767024 0.63741324 6.7107482 2.5963666 10 4.8125 C11.546875 5.84310547 11.546875 5.84310547 13.125 6.89453125 C15.70096852 8.7810082 17.90365321 10.5962562 20 13 C20 13.66 20 14.32 20 15 C20.66 15 21.32 15 22 15 C37.50645991 31.98632952 44.10454562 53.02914153 43.38671875 75.71484375 C42.98188235 82.84481732 41.41241487 89.26434659 39 96 C38.66097656 97.00804687 38.32195312 98.01609375 37.97265625 99.0546875 C31.22226272 117.1678431 18.93519255 129.65538717 3 140 C2.10667969 140.60199219 1.21335937 141.20398438 0.29296875 141.82421875 C-0.46371094 142.21222656 -1.22039062 142.60023438 -2 143 C-2.99 142.67 -3.98 142.34 -5 142 C-4.236875 141.360625 -3.47375 140.72125 -2.6875 140.0625 C2.59853247 134.65768029 3.41125253 126.55940875 5.0625 119.4375 C5.22500244 118.74889893 5.38750488 118.06029785 5.55493164 117.35083008 C8.55864585 103.79517629 9.30680117 90.41118823 9.20581055 76.58203125 C9.18751775 74.00250297 9.18530223 71.42333665 9.18554688 68.84375 C9.1576924 55.34680881 8.90616117 41.78940355 6.75 28.4375 C6.6264917 27.6530249 6.5029834 26.8685498 6.37573242 26.06030273 C5.24775246 19.43920109 3.3272049 13.28933234 0.98828125 7.00390625 C0 4 0 4 0 0 Z " fill="#FDBB46" transform="translate(326,130)"/>
<path d="M0 0 C0.66 0.33 1.32 0.66 2 1 C1.54753906 2.14984375 1.09507812 3.2996875 0.62890625 4.484375 C-11.74773782 37.59534997 -10.28890687 81.51883482 -3.375 115.65625 C-2.76603887 119.46225708 -2.87390549 123.15411751 -3 127 C-5.475 127.99 -5.475 127.99 -8 129 C-9.27200971 127.89718873 -10.54255853 126.79269231 -11.8125 125.6875 C-12.52019531 125.07261719 -13.22789062 124.45773437 -13.95703125 123.82421875 C-17.6228796 120.55088953 -17.6228796 120.55088953 -19 119 C-19 118.34 -19 117.68 -19 117 C-20.485 117.495 -20.485 117.495 -22 118 C-34.89687528 105.80864306 -40.87869325 87.40709215 -41.4050293 70.0546875 C-41.63702375 49.56940274 -35.55316356 28.86078477 -21.5 13.34375 C-19.53560679 11.58398108 -17.46855163 10.86732895 -15 10 C-15 10.99 -15 11.98 -15 13 C-14.01 12.67 -13.02 12.34 -12 12 C-11.54625 11.071875 -11.0925 10.14375 -10.625 9.1875 C-8.31144731 4.64937741 -4.77134043 1.80981878 0 0 Z " fill="#5007AD" transform="translate(249,133)"/>
<path d="M0 0 C0.77327637 0.08008301 1.54655273 0.16016602 2.34326172 0.24267578 C16.76884791 1.76166775 16.76884791 1.76166775 22 5 C23.125 7 23.125 7 23 9 C20.90588808 11.558743 19.0002633 12.5823547 15.875 13.5625 C14.81925781 13.90474609 14.81925781 13.90474609 13.7421875 14.25390625 C12.83726562 14.50011719 11.93234375 14.74632812 11 15 C10.40977051 15.16338867 9.81954102 15.32677734 9.21142578 15.49511719 C1.94041239 17.32265484 -5.4137361 17.67570375 -12.875 18.125 C-14.82212891 18.25455078 -14.82212891 18.25455078 -16.80859375 18.38671875 C-29.5039815 19.19379184 -41.99572784 19.00236831 -54.6875 18.25 C-55.39322144 18.20842773 -56.09894287 18.16685547 -56.8260498 18.12402344 C-81.61679996 16.60355037 -81.61679996 16.60355037 -91 11 C-91.9375 9.0625 -91.9375 9.0625 -92 7 C-86.36021636 0.19755327 -75.63007099 0.22789509 -67.4375 -0.59375 C-65.95856574 -0.73168169 -64.47940379 -0.86719894 -63 -1 C-61.1128125 -1.17015625 -61.1128125 -1.17015625 -59.1875 -1.34375 C-39.38477994 -2.828954 -19.72113654 -2.1484447 0 0 Z " fill="#EDEEED" transform="translate(323,295)"/>
<path d="M0 0 C0.495 0.99 0.495 0.99 1 2 C-1.64 1.67 -4.28 1.34 -7 1 C-7.103125 1.763125 -7.20625 2.52625 -7.3125 3.3125 C-8 6 -8 6 -9.44702148 7.37255859 C-12.52456424 10.59766471 -12.99365794 15.40430397 -14.0625 19.625 C-14.31837891 20.56601563 -14.57425781 21.50703125 -14.83789062 22.4765625 C-19.14809069 39.14119205 -19.34666525 55.79597984 -19.31567383 72.90209961 C-19.3125027 76.5593825 -19.33609603 80.21586265 -19.36132812 83.87304688 C-19.39454222 96.31708596 -18.91301494 107.88355969 -16 120 C-15.50069089 122.49640965 -15.03397651 124.99810492 -14.5625 127.5 C-12.98508117 134.70518913 -11.30042834 140.64625933 -5 145 C-11.4150557 147.87940913 -16.97047248 149.5464821 -24 150 C-24 150.66 -24 151.32 -24 152 C-27.95826931 152.05880857 -31.91642392 152.09386513 -35.875 152.125 C-36.98359375 152.14175781 -38.0921875 152.15851563 -39.234375 152.17578125 C-55.59199617 152.27200255 -55.59199617 152.27200255 -62 148 C-60.72253906 148.14308594 -59.44507813 148.28617188 -58.12890625 148.43359375 C-53.0671093 148.99601563 -48.00272874 149.53200669 -42.9375 150.0625 C-42.07189453 150.15337891 -41.20628906 150.24425781 -40.31445312 150.33789062 C-38.2096608 150.55883568 -36.10483405 150.77945279 -34 151 C-34 150.34 -34 149.68 -34 149 C-33.34 149 -32.68 149 -32 149 C-23.47012926 125.54285546 -21.46786114 100.75797387 -21.60888672 75.97363281 C-21.62496128 72.63304641 -21.60892422 69.2936752 -21.58984375 65.953125 C-21.56531566 41.68519124 -24.24948776 19.0015202 -32 -4 C-32.66 -4 -33.32 -4 -34 -4 C-34 -4.66 -34 -5.32 -34 -6 C-35.66611905 -6.042721 -37.33382885 -6.04063832 -39 -6 C-39.33 -5.67 -39.66 -5.34 -40 -5 C-42.04111798 -4.95266973 -44.08367225 -4.96280041 -46.125 -5 C-50.89093522 -5.04194442 -55.32046388 -4.87061137 -60 -4 C-47.67186198 -16.32813802 -13.33126171 -6.48071903 0 0 Z " fill="#FC756B" transform="translate(325,128)"/>
<path d="M0 0 C-0.26554687 0.71285156 -0.53109375 1.42570312 -0.8046875 2.16015625 C-1.33449219 3.59681641 -1.33449219 3.59681641 -1.875 5.0625 C-2.22304688 6.00222656 -2.57109375 6.94195312 -2.9296875 7.91015625 C-10.72248058 30.40686912 -10.38972163 54.73955706 -10.375 78.25 C-10.37663147 79.47789246 -10.37826294 80.70578491 -10.37994385 81.97088623 C-10.37726868 99.79254242 -10.00738899 117.57709267 -6.1875 135.0625 C-6.02080811 135.84488037 -5.85411621 136.62726074 -5.68237305 137.43334961 C-4.31424783 143.44947226 -2.23397416 148.72225035 1 154 C1.33 154.66 1.66 155.32 2 156 C-3.90776323 156.14162446 -9.42696278 155.66285873 -15.25 154.6875 C-16.03890625 154.56955078 -16.8278125 154.45160156 -17.640625 154.33007812 C-21.82130868 153.64153647 -24.83459997 153.03776293 -28 150 C-27.01 149.67 -26.02 149.34 -25 149 C-19.57616584 142.33161079 -17.63977983 134.98842578 -16.1875 126.6875 C-15.98447266 125.64916016 -15.78144531 124.61082031 -15.57226562 123.54101562 C-12.80507669 108.7918073 -12.81362185 94.11834069 -12.81469727 79.16357422 C-12.81251396 75.77168155 -12.79431334 72.38011654 -12.77539062 68.98828125 C-12.7315728 52.837018 -13.17929152 37.30706451 -17.9375 21.75 C-18.18951172 20.86699219 -18.44152344 19.98398438 -18.70117188 19.07421875 C-20.29811885 13.65848553 -21.92835087 9.07164913 -26 5 C-26.33 5.66 -26.66 6.32 -27 7 C-28.98 7 -30.96 7 -33 7 C-25.04773338 -2.27764439 -10.98647252 -1.44148753 0 0 Z " fill="#C5358A" transform="translate(284,123)"/>
<path d="M0 0 C4 0 4 0 5.74609375 1.64453125 C6.30425781 2.35996094 6.86242187 3.07539063 7.4375 3.8125 C10.0257397 6.93833981 12.16837376 9.40348907 16 11 C19.11332248 10.33131686 19.11332248 10.33131686 20.1875 7.9375 C20.455625 7.298125 20.72375 6.65875 21 6 C21.67057887 7.7902061 22.3363469 9.58221489 23 11.375 C23.556875 12.87160156 23.556875 12.87160156 24.125 14.3984375 C25 17 25 17 25 19 C21.3936981 19.48933093 20.05166953 19.03250602 16.9140625 17.05859375 C15.80679227 16.19877217 14.71077321 15.32431286 13.625 14.4375 C13.05499268 13.98439453 12.48498535 13.53128906 11.89770508 13.06445312 C3.11932747 5.99273916 3.11932747 5.99273916 0 2 C0 1.34 0 0.68 0 0 Z " fill="#4C059F" transform="translate(226,250)"/>
<path d="M0 0 C1.62127303 3.24254607 0.03628498 6.43610475 -0.8125 9.8125 C-2.36184008 16.38151037 -3.48718792 22.86480417 -4.09765625 29.5859375 C-4.18038788 30.47846725 -4.26311951 31.37099701 -4.34835815 32.29057312 C-5.3068225 43.44701877 -5.45834938 54.62173711 -5.625 65.8125 C-5.66332253 67.98113299 -5.70238159 70.1497531 -5.7421875 72.31835938 C-5.83657261 77.54546413 -5.9211424 82.7726389 -6 88 C-6.33 88 -6.66 88 -7 88 C-7.37911654 40.67459086 -7.37911654 40.67459086 -6.25 23.6875 C-6.18828613 22.63208008 -6.12657227 21.57666016 -6.06298828 20.48925781 C-5.56676732 14.19829023 -4.69671995 4.69671995 0 0 Z " fill="#FD7F5D" transform="translate(311,136)"/>
<path d="M0 0 C0.33 0 0.66 0 1 0 C2.95589825 13.70353995 3.31125206 27.23715129 3.26074219 41.06811523 C3.25000596 44.56056022 3.2607066 48.05249223 3.2734375 51.54492188 C3.27997337 63.84052718 2.86925951 75.8381037 1 88 C-1.51084412 84.23955135 -0.87458823 81.59194782 -0.140625 77.25 C1.34361179 67.23762138 1.30148096 57.2672789 1.26074219 47.1640625 C1.25001702 44.00501315 1.26069947 40.84653226 1.2734375 37.6875 C1.27871288 27.32827317 0.96473124 17.28638161 -0.66894531 7.046875 C-0.96935545 4.28203834 -0.91486764 2.58918758 0 0 Z " fill="#F85368" transform="translate(301,156)"/>
<path d="M0 0 C5.34844008 0.53484401 9.35796103 2.46690767 14 5 C11.13822943 6.43088528 9.06624227 5.59991697 6 5 C5.8453125 6.1446875 5.8453125 6.1446875 5.6875 7.3125 C5 10 5 10 3.55737305 11.33520508 C1.50641266 13.52763318 1.11623083 15.42138267 0.39453125 18.32421875 C0.13349609 19.35224609 -0.12753906 20.38027344 -0.39648438 21.43945312 C-0.65751953 22.51130859 -0.91855469 23.58316406 -1.1875 24.6875 C-1.46013672 25.77095703 -1.73277344 26.85441406 -2.01367188 27.97070312 C-2.68517673 30.64494178 -3.34686477 33.32122653 -4 36 C-5.3480237 31.58465379 -4.42861932 27.84479849 -3.4375 23.4375 C-3.26057617 22.63844238 -3.08365234 21.83938477 -2.90136719 21.01611328 C-1.31602761 14.37297715 1.22421443 8.71402217 5 3 C4.01 2.67 3.02 2.34 2 2 C1.34 1.34 0.68 0.68 0 0 Z " fill="#FE8C5D" transform="translate(312,124)"/>
<path d="M0 0 C0.556875 0.391875 1.11375 0.78375 1.6875 1.1875 C0.93984375 1.61160156 0.1921875 2.03570312 -0.578125 2.47265625 C-6.62127116 6.07165037 -10.51449 8.65881 -13.3125 15.1875 C-14.3025 15.1875 -15.2925 15.1875 -16.3125 15.1875 C-16.6425 14.5275 -16.9725 13.8675 -17.3125 13.1875 C-18.3025 13.6825 -18.3025 13.6825 -19.3125 14.1875 C-18.02971929 10.33915787 -16.209552 9.21187326 -13.0625 6.6875 C-12.10859375 5.9140625 -11.1546875 5.140625 -10.171875 4.34375 C-3.00949399 -1.05738978 -3.00949399 -1.05738978 0 0 Z " fill="#8056BA" transform="translate(250.3125,130.8125)"/>
<path d="M0 0 C0.99 0.33 1.98 0.66 3 1 C4.32 7.6 5.64 14.2 7 21 C7.33 21 7.66 21 8 21 C7.67 25.62 7.34 30.24 7 35 C6.67 35 6.34 35 6 35 C5.90203125 33.93523437 5.8040625 32.87046875 5.703125 31.7734375 C4.83478057 23.11305546 3.47416801 15.16593181 0.8046875 6.85546875 C0 4 0 4 0 0 Z " fill="#B83194" transform="translate(265,138)"/>
<path d="M0 0 C1.66534152 3.33068305 0.03339897 6.77011715 -0.8125 10.25 C-2.65768083 18.13727469 -4.01690231 25.95412152 -5 34 C-5.33 34 -5.66 34 -6 34 C-6.19632157 22.41702727 -5.90011906 11.69859328 -1 1 C-0.67 0.67 -0.34 0.34 0 0 Z " fill="#F97557" transform="translate(311,136)"/>
<path d="M0 0 C0 0.33 0 0.66 0 1 C-0.85464844 1.06058594 -1.70929688 1.12117188 -2.58984375 1.18359375 C-4.24693359 1.30927734 -4.24693359 1.30927734 -5.9375 1.4375 C-7.03964844 1.51871094 -8.14179688 1.59992188 -9.27734375 1.68359375 C-11.91109903 1.70418084 -11.91109903 1.70418084 -13 3 C-15.04111798 3.04733027 -17.08367225 3.03719959 -19.125 3 C-23.89093522 2.95805558 -28.32046388 3.12938863 -33 4 C-26.08570635 -2.91429365 -9.18111669 -0.17286621 0 0 Z " fill="#E3A3C5" transform="translate(298,120)"/>
<path d="M0 0 C1 2 1 2 0.29296875 4.171875 C-0.07183594 5.02265625 -0.43664062 5.8734375 -0.8125 6.75 C-2.36761058 10.46289378 -3.78673763 14.15800249 -5 18 C-5.66 18 -6.32 18 -7 18 C-7.66 19.98 -8.32 21.96 -9 24 C-10.52856899 19.37076595 -8.70119296 16.22375888 -6.75 12 C-6.28013672 10.93265625 -6.28013672 10.93265625 -5.80078125 9.84375 C-4.18391483 6.24773173 -2.56337068 3.03806895 0 0 Z " fill="#A887D0" transform="translate(221,156)"/>
<path d="M0 0 C4 0 4 0 5.78125 1.5390625 C6.3484375 2.22742188 6.915625 2.91578125 7.5 3.625 C8.09941406 4.34945312 8.69882813 5.07390625 9.31640625 5.8203125 C11.3643406 8.4716985 13.22468728 11.15949965 15 14 C11.85093585 12.58397787 9.50476328 10.86264918 6.9375 8.5625 C6.26589844 7.96566406 5.59429687 7.36882812 4.90234375 6.75390625 C4.27457031 6.17511719 3.64679688 5.59632813 3 5 C2.42378906 4.47277344 1.84757813 3.94554687 1.25390625 3.40234375 C0 2 0 2 0 0 Z " fill="#9877C6" transform="translate(226,250)"/>
<path d="M0 0 C0.33 0 0.66 0 1 0 C1.20473721 5.39376641 0.52568511 10.03351112 -0.8125 15.25 C-0.97814453 15.95640625 -1.14378906 16.6628125 -1.31445312 17.390625 C-2.9531825 23.92080695 -2.9531825 23.92080695 -6 26 C-6.66 26 -7.32 26 -8 26 C-8.33 25.01 -8.66 24.02 -9 23 C-8.38511719 22.64550781 -7.77023437 22.29101562 -7.13671875 21.92578125 C-4.22920523 19.30529832 -3.7937713 16.94837247 -2.8125 13.1875 C-2.48894531 11.98480469 -2.16539062 10.78210938 -1.83203125 9.54296875 C-1.08673449 6.36933417 -0.48847367 3.2219526 0 0 Z " fill="#F99945" transform="translate(331,243)"/>
<path d="M0 0 C1.15084889 2.82359437 1.06262458 3.84608465 -0.109375 6.7265625 C-0.65078125 7.68304688 -1.1921875 8.63953125 -1.75 9.625 C-2.28109375 10.58664063 -2.8121875 11.54828125 -3.359375 12.5390625 C-5 15 -5 15 -8 17 C-8 14.36 -8 11.72 -8 9 C-7.34 9 -6.68 9 -6 9 C-5.34 8.34 -4.68 7.68 -4 7 C-3.34 6.34 -2.68 5.68 -2 5 C-1.29289322 3.35008418 -0.62056011 1.68437744 0 0 Z " fill="#FAD589" transform="translate(362,228)"/>
<path d="M0 0 C0 0.33 0 0.66 0 1 C-1.13179687 1.24234375 -2.26359375 1.4846875 -3.4296875 1.734375 C-4.91165852 2.07203928 -6.39341883 2.41062927 -7.875 2.75 C-8.62136719 2.90726562 -9.36773437 3.06453125 -10.13671875 3.2265625 C-14.41966806 4.11146641 -14.41966806 4.11146641 -17.3828125 7.078125 C-17.58648437 7.71234375 -17.79015625 8.3465625 -18 9 C-18.99 9.495 -18.99 9.495 -20 10 C-20.6875 8.1875 -20.6875 8.1875 -21 6 C-15.99299623 -0.27075233 -7.3582628 -0.35039347 0 0 Z " fill="#F8F9F8" transform="translate(252,296)"/>
<path d="M0 0 C2 2 2 2 2 5 C2.66 5 3.32 5 4 5 C4.2475 6.051875 4.495 7.10375 4.75 8.1875 C5.76700786 11.8133541 7.45373429 14.19910772 10 17 C7.67578125 16.79296875 7.67578125 16.79296875 5 16 C1.44668759 11.34121262 -0.77566125 5.89502551 0 0 Z " fill="#F34C83" transform="translate(279,261)"/>
<path d="M0 0 C0.99 0 1.98 0 3 0 C3.84686259 2.35004369 4.67750196 4.7039313 5.5 7.0625 C5.85771484 8.04766602 5.85771484 8.04766602 6.22265625 9.05273438 C7.75654063 13.50099909 8.24787428 17.23461699 8 22 C7.67 22 7.34 22 7 22 C6.01 17.38 5.02 12.76 4 8 C3.34 8 2.68 8 2 8 C1.34 5.36 0.68 2.72 0 0 Z " fill="#FA9946" transform="translate(324,134)"/>
<path d="M0 0 C4.07453229 0.62304741 6.89539701 2.76532621 10.25 5.0625 C11.32765625 5.79597656 12.4053125 6.52945313 13.515625 7.28515625 C14.33546875 7.85105469 15.1553125 8.41695312 16 9 C15.67 9.66 15.34 10.32 15 11 C11.37 9.02 7.74 7.04 4 5 C4 4.34 4 3.68 4 3 C3.01 3 2.02 3 1 3 C0.67 2.01 0.34 1.02 0 0 Z " fill="#F7D995" transform="translate(326,130)"/>
<path d="M0 0 C0.28875 0.639375 0.5775 1.27875 0.875 1.9375 C1.82823451 4.15206079 1.82823451 4.15206079 4 5 C2.73760288 5.86658615 1.46472499 6.71792059 0.1875 7.5625 C-0.87404297 8.27599609 -0.87404297 8.27599609 -1.95703125 9.00390625 C-4 10 -4 10 -7 9 C-6.21625 8.2575 -5.4325 7.515 -4.625 6.75 C-2.43495469 4.45566682 -1.17268614 2.87841142 0 0 Z " fill="#FCD393" transform="translate(328,263)"/>
<path d="M0 0 C5.34844008 0.53484401 9.35796103 2.46690767 14 5 C10.93109813 6.53445094 8.29905734 5.54984289 5 5 C5 4.34 5 3.68 5 3 C4.01 2.67 3.02 2.34 2 2 C1.34 1.34 0.68 0.68 0 0 Z " fill="#F6B6A0" transform="translate(312,124)"/>
<path d="M0 0 C3.42876655 2.28584437 4.08239306 3.7442411 5.75 7.4375 C6.42289062 8.88962891 6.42289062 8.88962891 7.109375 10.37109375 C8 13 8 13 7 16 C6.66226562 15.30132812 6.32453125 14.60265625 5.9765625 13.8828125 C5.53054688 12.97273437 5.08453125 12.06265625 4.625 11.125 C4.18414062 10.22007812 3.74328125 9.31515625 3.2890625 8.3828125 C2.09497301 5.90465528 2.09497301 5.90465528 0 4 C0 2.68 0 1.36 0 0 Z " fill="#FBE1AC" transform="translate(357,160)"/>
<path d="M0 0 C0.66 0 1.32 0 2 0 C2 0.66 2 1.32 2 2 C4.97 2 7.94 2 11 2 C7.68629 4.20914 6.6553979 4.22481553 2.8125 4.125 C1.91144531 4.10695313 1.01039063 4.08890625 0.08203125 4.0703125 C-0.60503906 4.04710937 -1.29210937 4.02390625 -2 4 C-2 3.34 -2 2.68 -2 2 C-1.34 2 -0.68 2 0 2 C0 1.34 0 0.68 0 0 Z " fill="#EE7474" transform="translate(293,275)"/>
<path d="M0 0 C0.33 0.66 0.66 1.32 1 2 C1.99 2.33 2.98 2.66 4 3 C4.66 6.3 5.32 9.6 6 13 C3.02815016 10.02815016 1.6377118 7.82132753 0 4 C0 2.68 0 1.36 0 0 Z " fill="#AC8DD4" transform="translate(214,228)"/>
<path d="M0 0 C1.32 0.66 2.64 1.32 4 2 C4 3.32 4 4.64 4 6 C4.66 6.33 5.32 6.66 6 7 C2.31245243 6.50168276 0.39509338 5.89932357 -2 3 C-1.01 3 -0.02 3 1 3 C0.67 2.01 0.34 1.02 0 0 Z " fill="#A56BC3" transform="translate(250,266)"/>
<path d="M0 0 C1.59036701 3.18073402 0.78365299 5.62426403 0 9 C-2.0625 10.4375 -2.0625 10.4375 -4 11 C-4 9.68 -4 8.36 -4 7 C-3.34 7 -2.68 7 -2 7 C-1.855625 6.030625 -1.71125 5.06125 -1.5625 4.0625 C-1 1 -1 1 0 0 Z " fill="#47079E" transform="translate(223,155)"/>
<path d="M0 0 C-0.33 1.32 -0.66 2.64 -1 4 C-1.99 4 -2.98 4 -4 4 C-4.33 3.34 -4.66 2.68 -5 2 C-5.99 2.495 -5.99 2.495 -7 3 C-6.67 2.01 -6.34 1.02 -6 0 C-3.50907189 -1.24546405 -2.58919267 -0.7767578 0 0 Z " fill="#763FC5" transform="translate(238,142)"/>
<path d="M0 0 C0.66 0 1.32 0 2 0 C1.44687265 4.02992782 0.8441938 8.02022924 0 12 C-0.33 12 -0.66 12 -1 12 C-1.02712066 10.56260487 -1.04645067 9.12506137 -1.0625 7.6875 C-1.07410156 6.88699219 -1.08570313 6.08648437 -1.09765625 5.26171875 C-1 3 -1 3 0 0 Z " fill="#C83079" transform="translate(277,134)"/>
<path d="M0 0 C0.33 0 0.66 0 1 0 C1.08131463 1.43655854 1.13933559 2.8744483 1.1875 4.3125 C1.23970703 5.51326172 1.23970703 5.51326172 1.29296875 6.73828125 C0.93801608 9.47851584 0.10633718 10.29171079 -2 12 C-1 3.42857143 -1 3.42857143 0 0 Z " fill="#FE666F" transform="translate(299,256)"/>
<path d="M0 0 C4.23830976 2.82553984 3.97715348 5.12180888 5 10 C4.34 10 3.68 10 3 10 C0 3.375 0 3.375 0 0 Z " fill="#8019A8" transform="translate(247,256)"/>
<path d="M0 0 C0.33 0.99 0.66 1.98 1 3 C0.67 3.66 0.34 4.32 0 5 C-0.66 5 -1.32 5 -2 5 C-2 5.66 -2 6.32 -2 7 C-3.65 7 -5.3 7 -7 7 C-4.66666667 4.66666667 -2.33333333 2.33333333 0 0 Z " fill="#EF4F6B" transform="translate(293,272)"/>
<path d="M0 0 C4.75 0.875 4.75 0.875 7 2 C7 2.99 7 3.98 7 5 C3.34683329 3.75023244 2.21934164 3.32901247 0 0 Z " fill="#9270C8" transform="translate(241,264)"/>
<path d="M0 0 C2.60334924 2.71182212 2.99456691 3.89133813 3.1875 7.75 C3.0946875 9.35875 3.0946875 9.35875 3 11 C0.60236815 8.60236815 0.65719414 7.66726502 0.375 4.375 C0.30023438 3.55773437 0.22546875 2.74046875 0.1484375 1.8984375 C0.09945312 1.27195313 0.05046875 0.64546875 0 0 Z " fill="#420B96" transform="translate(211,213)"/>
<path d="M0 0 C1.65 1.65 3.3 3.3 5 5 C4.67 5.99 4.34 6.98 4 8 C0 3.375 0 3.375 0 0 Z " fill="#FE8A5B" transform="translate(313,264)"/>
</svg>
