<?xml version="1.0" standalone="no"?>
<!DOCTYPE svg PUBLIC "-//W3C//DTD SVG 20010904//EN"
 "http://www.w3.org/TR/2001/REC-SVG-20010904/DTD/svg10.dtd">
<svg version="1.0" xmlns="http://www.w3.org/2000/svg"
 width="800.000000pt" height="800.000000pt" viewBox="0 0 800.000000 800.000000"
 preserveAspectRatio="xMidYMid meet">

<g transform="translate(0.000000,800.000000) scale(0.100000,-0.100000)"
fill="#000000" stroke="none">
<path d="M3806 7989 c-438 -22 -867 -115 -1276 -276 -180 -71 -467 -215 -624
-313 l-120 -75 67 -3 67 -3 0 -79 0 -80 40 0 40 0 0 -40 0 -40 80 0 80 0 0
-120 0 -120 44 0 44 0 -6 -172 c-4 -139 -3 -170 8 -163 9 5 11 4 6 -4 -5 -8
-12 -9 -20 -2 -7 6 -49 13 -94 17 l-82 7 0 -42 c0 -22 4 -41 8 -41 11 0 30
-170 20 -176 -4 -3 -8 -18 -8 -35 0 -16 -4 -29 -10 -29 -5 0 -10 -18 -10 -40
0 -33 3 -40 20 -40 17 0 20 -7 20 -39 0 -43 -10 -51 -66 -51 -61 0 -36 -17 36
-24 38 -4 72 -11 75 -16 6 -9 -17 -20 -48 -21 -20 -1 -20 -2 3 -9 24 -8 24 -8
3 -9 -13 -1 -23 -5 -23 -11 0 -5 -7 -10 -15 -10 -8 0 -15 -5 -15 -11 0 -11 6
-10 68 7 34 10 27 -15 -9 -28 -20 -7 -29 -16 -27 -27 4 -19 34 -16 55 5 19 19
37 18 29 -2 -3 -9 -6 -21 -6 -28 0 -6 -14 -16 -32 -21 -17 -6 -33 -18 -35 -27
-17 -78 -17 -78 11 -78 24 0 26 2 16 21 -6 11 -10 30 -8 41 3 20 4 20 17 -5
17 -32 7 -77 -19 -84 -23 -6 -16 -29 12 -36 18 -5 20 -12 16 -62 -4 -50 -3
-56 13 -52 23 6 43 -46 29 -73 -14 -26 -13 -31 7 -28 22 4 33 -39 34 -129 0
-40 4 -73 8 -73 4 0 14 -11 21 -25 10 -19 10 -27 1 -39 -10 -12 -8 -19 9 -36
18 -18 19 -24 9 -36 -10 -13 -10 -17 1 -24 8 -5 17 -7 21 -4 4 2 7 -2 6 -9 -1
-44 4 -71 12 -59 6 10 11 5 20 -19 6 -17 11 -40 11 -50 0 -11 5 -19 11 -19 6
0 9 -9 6 -20 -3 -10 1 -27 9 -37 26 -35 18 -53 -26 -53 -62 0 -94 -22 -124
-84 -25 -50 -27 -65 -28 -188 -1 -126 1 -137 30 -213 17 -44 36 -100 42 -125
25 -93 43 -134 77 -171 20 -21 42 -48 50 -59 21 -29 64 -49 126 -56 62 -7 108
5 157 41 l34 25 24 -58 c62 -148 102 -336 128 -592 37 -365 43 -441 43 -543 1
-100 -14 -187 -31 -187 -5 0 -8 -6 -8 -13 0 -7 -13 -29 -30 -48 -24 -30 -38
-38 -77 -43 -54 -7 -97 -28 -143 -69 -22 -20 -49 -31 -93 -39 -34 -6 -74 -19
-89 -29 -26 -19 -26 -19 -21 3 3 14 1 18 -4 11 -4 -6 -20 -15 -36 -18 -15 -4
-24 -11 -21 -17 3 -5 11 -4 20 3 24 20 15 -6 -10 -31 -14 -12 -32 -20 -40 -17
-9 4 -18 2 -21 -3 -4 -6 -1 -10 6 -10 23 0 -3 -18 -94 -65 -88 -46 -118 -56
-83 -30 19 14 18 15 -10 15 -23 0 -30 -5 -31 -20 -1 -11 3 -20 9 -20 12 0 1
-15 -10 -15 -4 0 -19 -12 -33 -25 -39 -36 -251 -140 -288 -140 -9 0 -27 -9
-41 -20 -14 -11 -28 -20 -33 -20 -4 0 -30 -16 -58 -36 -28 -19 -57 -33 -65
-30 -7 3 -13 0 -11 -6 4 -22 -83 -55 -166 -63 -22 -2 -42 -7 -45 -11 -4 -4 1
-4 11 -1 39 14 13 -10 -36 -32 -29 -13 -64 -33 -79 -43 -16 -11 -32 -17 -37
-14 -5 3 -12 -1 -15 -10 -3 -8 -19 -20 -36 -25 -16 -6 -30 -15 -30 -20 0 -5
-4 -9 -9 -9 -11 0 -107 -44 -151 -71 -19 -11 -47 -27 -63 -35 -34 -18 -32 -22
69 -139 429 -499 991 -894 1604 -1128 472 -181 909 -261 1425 -261 274 -1 388
8 630 46 1007 158 1943 714 2544 1513 438 582 705 1233 796 1940 35 279 37
684 5 954 -81 667 -329 1313 -710 1851 -305 431 -690 793 -1149 1081 -137 87
-466 255 -601 308 -422 166 -859 266 -1255 285 -249 13 -294 13 -449 5z
m-1366 -1259 c0 -5 -5 -10 -11 -10 -5 0 -7 5 -4 10 3 6 8 10 11 10 2 0 4 -4 4
-10z m-113 -82 c-3 -7 -5 -2 -5 12 0 14 2 19 5 13 2 -7 2 -19 0 -25z m33 17
c0 -8 -4 -15 -8 -15 -5 0 -9 7 -9 15 0 8 4 15 9 15 4 0 8 -7 8 -15z m0 -99 c0
-3 -4 -8 -10 -11 -5 -3 -10 -1 -10 4 0 6 5 11 10 11 6 0 10 -2 10 -4z m-273
-98 c-3 -7 -5 -2 -5 12 0 14 2 19 5 13 2 -7 2 -19 0 -25z m51 -315 c12 -3 22
-12 22 -19 0 -16 -16 -19 -25 -4 -3 6 -17 10 -31 10 -15 0 -24 6 -24 16 0 12
5 14 18 9 9 -4 27 -10 40 -12z m26 -368 c-4 -8 -8 -15 -10 -15 -2 0 -4 7 -4
15 0 8 4 15 10 15 5 0 7 -7 4 -15z m2939 -408 c51 -41 75 -83 88 -152 10 -56
10 -58 -18 -87 -23 -25 -98 -68 -117 -68 -3 0 -12 13 -20 29 -13 24 -21 186
-17 309 1 19 38 5 84 -31z m73 -25 c-8 -7 -25 8 -37 31 -11 21 -10 21 15 -2
14 -14 24 -26 22 -29z m-202 -47 c-3 -8 -2 -27 3 -42 10 -29 7 -53 -6 -53 -12
0 -31 49 -31 80 0 23 5 30 20 30 13 0 18 -5 14 -15z m-1044 -60 c0 -5 -5 -3
-10 5 -5 8 -10 20 -10 25 0 6 5 3 10 -5 5 -8 10 -19 10 -25z m385 25 c3 -5 -1
-10 -10 -10 -9 0 -13 5 -10 10 3 6 8 10 10 10 2 0 7 -4 10 -10z m999 -30 c16
-15 -5 -30 -32 -24 -47 10 -52 13 -46 28 4 11 15 14 37 9 18 -3 36 -9 41 -13z
m-2393 -83 c-8 -8 -11 -4 -11 14 0 33 14 47 18 19 2 -12 -1 -27 -7 -33z m2077
3 c3 -21 2 -22 -12 -11 -19 16 -21 44 -3 39 6 -3 14 -15 15 -28z m207 -59 c7
-12 -22 -41 -41 -41 -18 0 -18 9 3 32 18 20 29 23 38 9z m-765 -276 c23 -39
23 -40 2 -21 -12 11 -22 23 -22 28 0 5 -7 16 -15 24 -8 9 -15 21 -15 27 0 16
22 -9 50 -58z m-64 14 c10 -16 -22 -43 -42 -35 -16 6 -16 8 1 26 20 23 31 25
41 9z m694 -1163 c0 -3 -4 -8 -10 -11 -5 -3 -10 -1 -10 4 0 6 5 11 10 11 6 0
10 -2 10 -4z m47 -1092 c-3 -3 -12 -4 -19 -1 -8 3 -5 6 6 6 11 1 17 -2 13 -5z"/>
<path d="M2601 3901 c-8 -5 4 -8 28 -8 23 0 41 3 41 7 0 10 -53 10 -69 1z"/>
<path d="M2498 3893 c12 -2 30 -2 40 0 9 3 -1 5 -23 4 -22 0 -30 -2 -17 -4z"/>
<path d="M2400 2436 c0 -2 7 -6 15 -10 8 -3 15 -1 15 4 0 6 -7 10 -15 10 -8 0
-15 -2 -15 -4z"/>
<path d="M2030 2170 c-14 -10 -22 -22 -18 -25 7 -8 57 25 58 38 0 12 -14 8
-40 -13z"/>
<path d="M1136 1695 c-11 -8 -17 -17 -14 -20 3 -3 16 3 29 14 27 23 14 28 -15
6z"/>
</g>
</svg>
